HIERARCHY
ROOT Hips
{
	OFFSET 0.000000 89.005402 0.000000
	CHANNELS 6 Xposition Yposition Zposition Xrotation Yrotation Zrotation
	JOINT Spine
	{
		OFFSET 0.116900 10.681000 0.373400
		CHANNELS 3 Xrotation Yrotation Zrotation
		JOINT Spine1
		{
			OFFSET 0.000000 13.840401 0.053500
			CHANNELS 3 Xrotation Yrotation Zrotation
			JOINT Spine2
			{
				OFFSET 0.000000 14.712700 -0.366200
				CHANNELS 3 Xrotation Yrotation Zrotation
				JOINT Neck
				{
					OFFSET 0.000000 35.415497 -3.314200
					CHANNELS 3 Xrotation Yrotation Zrotation
					JOINT Head
					{
						OFFSET 0.000000 16.899200 1.218300
						CHANNELS 3 Xrotation Yrotation Zrotation
						JOINT HeadTop_End
						{
							OFFSET 0.000000 22.206207 2.192500
							CHANNELS 3 Xrotation Yrotation Zrotation
							End Site
							{
								OFFSET 0.000000 22.314178 0.000000
							}
						}
					}
				}
				JOINT LeftShoulder
				{
					OFFSET 12.896400 26.716293 -4.548400
					CHANNELS 3 Xrotation Yrotation Zrotation
					JOINT LeftArm
					{
						OFFSET 19.027000 -4.857010 -1.718400
						CHANNELS 3 Xrotation Yrotation Zrotation
						JOINT LeftForeArm
						{
							OFFSET 24.179897 0.000000 0.000000
							CHANNELS 3 Xrotation Yrotation Zrotation
							JOINT LeftHand
							{
								OFFSET 27.156403 0.000000 0.000000
								CHANNELS 3 Xrotation Yrotation Zrotation
								JOINT LeftHandIndex1
								{
									OFFSET 16.441200 0.000000 0.000000
									CHANNELS 3 Xrotation Yrotation Zrotation
									JOINT LeftHandIndex2
									{
										OFFSET 4.821899 0.000000 0.000000
										CHANNELS 3 Xrotation Yrotation Zrotation
										JOINT LeftHandIndex3
										{
											OFFSET 6.386497 0.000000 0.000000
											CHANNELS 3 Xrotation Yrotation Zrotation
											JOINT LeftHandIndex4
											{
												OFFSET 5.188988 0.000000 0.000000
												CHANNELS 3 Xrotation Yrotation Zrotation
												End Site
												{
													OFFSET -0.178703 5.185913 0.000177
												}
											}
										}
									}
								}
								JOINT LeftHandThumb1
								{
									OFFSET 6.534897 -5.032593 5.900300
									CHANNELS 3 Xrotation Yrotation Zrotation
									JOINT LeftHandThumb2
									{
										OFFSET 3.818176 -2.204422 2.204423
										CHANNELS 3 Xrotation Yrotation Zrotation
										JOINT LeftHandThumb3
										{
											OFFSET 3.252098 -1.877594 1.877601
											CHANNELS 3 Xrotation Yrotation Zrotation
											JOINT LeftHandThumb4
											{
												OFFSET 5.251778 -3.032120 3.032117
												CHANNELS 3 Xrotation Yrotation Zrotation
												End Site
												{
													OFFSET 0.000023 6.780014 0.000000
												}
											}
										}
									}
								}
							}
						}
					}
				}
				JOINT RightShoulder
				{
					OFFSET -12.896300 26.716293 -4.548400
					CHANNELS 3 Xrotation Yrotation Zrotation
					JOINT RightArm
					{
						OFFSET -19.027000 -4.857010 -1.718400
						CHANNELS 3 Xrotation Yrotation Zrotation
						JOINT RightForeArm
						{
							OFFSET -24.179897 0.000000 0.000000
							CHANNELS 3 Xrotation Yrotation Zrotation
							JOINT RightHand
							{
								OFFSET -27.156403 0.000000 0.000000
								CHANNELS 3 Xrotation Yrotation Zrotation
								JOINT RightHandThumb1
								{
									OFFSET -6.591202 -4.852203 5.988100
									CHANNELS 3 Xrotation Yrotation Zrotation
									JOINT RightHandThumb2
									{
										OFFSET -3.818176 -2.204422 2.204423
										CHANNELS 3 Xrotation Yrotation Zrotation
										JOINT RightHandThumb3
										{
											OFFSET -3.252098 -1.877594 1.877601
											CHANNELS 3 Xrotation Yrotation Zrotation
											JOINT RightHandThumb4
											{
												OFFSET -5.251778 -3.032120 3.032117
												CHANNELS 3 Xrotation Yrotation Zrotation
												End Site
												{
													OFFSET -0.000023 6.780014 0.000000
												}
											}
										}
									}
								}
								JOINT RightHandIndex1
								{
									OFFSET -16.029404 0.000000 0.000000
									CHANNELS 3 Xrotation Yrotation Zrotation
									JOINT RightHandIndex2
									{
										OFFSET -5.213303 0.000000 0.000000
										CHANNELS 3 Xrotation Yrotation Zrotation
										JOINT RightHandIndex3
										{
											OFFSET -6.386528 0.000000 0.000000
											CHANNELS 3 Xrotation Yrotation Zrotation
											JOINT RightHandIndex4
											{
												OFFSET -5.189026 0.000000 0.000000
												CHANNELS 3 Xrotation Yrotation Zrotation
												End Site
												{
													OFFSET 0.236702 5.183624 0.001972
												}
											}
										}
									}
								}
							}
						}
					}
				}
			}
		}
	}
	JOINT LeftUpLeg
	{
		OFFSET 14.073000 -7.904099 -1.463000
		CHANNELS 3 Xrotation Yrotation Zrotation
		JOINT LeftLeg
		{
			OFFSET -0.109806 -34.073280 4.093200
			CHANNELS 3 Xrotation Yrotation Zrotation
			JOINT LeftFoot
			{
				OFFSET 0.109806 -29.899420 -6.319000
				CHANNELS 3 Xrotation Yrotation Zrotation
				JOINT LeftToeBase
				{
					OFFSET 1.551100 -14.988700 20.535801
					CHANNELS 3 Xrotation Yrotation Zrotation
					JOINT LeftToe_End
					{
						OFFSET 0.221200 0.570800 13.248301
						CHANNELS 3 Xrotation Yrotation Zrotation
						End Site
						{
							OFFSET 0.000000 13.262435 0.000000
						}
					}
				}
			}
		}
	}
	JOINT RightUpLeg
	{
		OFFSET -13.839300 -7.904099 -1.463000
		CHANNELS 3 Xrotation Yrotation Zrotation
		JOINT RightLeg
		{
			OFFSET 0.109694 -34.073219 4.093300
			CHANNELS 3 Xrotation Yrotation Zrotation
			JOINT RightFoot
			{
				OFFSET -0.109694 -29.899384 -6.319200
				CHANNELS 3 Xrotation Yrotation Zrotation
				JOINT RightToeBase
				{
					OFFSET -1.551100 -14.988700 20.535801
					CHANNELS 3 Xrotation Yrotation Zrotation
					JOINT RightToe_End
					{
						OFFSET -0.221200 0.570900 13.248299
						CHANNELS 3 Xrotation Yrotation Zrotation
						End Site
						{
							OFFSET 0.000000 13.262440 0.000000
						}
					}
				}
			}
		}
	}
}
MOTION
Frames: 4
Frame Time: 0.033333
-0.458809 64.437019 4.304398 -23.460274 -0.680854 -4.441934 19.356468 0.886216 4.366238 5.714553 0.180604 1.505380 5.713822 0.211379 1.502744 6.370247 -0.743578 0.007684 -9.925376 -2.829161 -2.528006 0.000000 -0.000000 -0.000000 3.057954 -12.083038 -10.196823 0.296513 -1.345518 -72.165532 -0.000003 -35.121984 -0.000004 -10.867939 18.502279 2.093532 0.099285 2.328778 -35.230560 0.667644 2.962615 -25.394478 0.019848 0.523514 -4.342306 0.000000 0.000001 -0.000000 -1.626134 3.362924 12.017688 6.575007 18.692382 -1.357090 1.860051 8.864657 1.097068 0.000000 0.000003 -0.000000 1.619967 3.085430 10.395015 -9.992952 -3.667344 68.833731 0.000002 24.555567 0.000001 10.831900 -21.120425 9.717851 -8.949763 -6.489855 -11.610538 9.808048 -21.801072 0.822490 0.991246 -6.026032 -2.153557 0.000001 0.000003 -0.000001 -0.372893 -0.091185 19.182257 1.239824 -3.967891 34.692566 0.317009 -2.079468 17.334071 -0.000000 -0.000000 0.000001 -43.928386 -0.685389 11.806429 71.803067 3.666206 3.740182 -4.385914 0.528083 -5.400758 -1.108246 0.000002 0.000000 0.000000 -0.000000 -0.000000 -40.511590 -5.651884 -9.900274 69.581316 -0.646929 1.533300 -5.981913 -0.102000 1.578645 -0.232462 -0.000007 -0.000001 0.000000 -0.000000 0.000000 
-0.461957 64.434120 4.289909 -23.517489 -0.685805 -4.442725 19.320711 0.888360 4.343140 5.703615 0.181862 1.497674 5.702897 0.212274 1.495048 6.413026 -0.745924 0.020640 -9.794186 -2.830689 -2.527760 -0.000000 0.000000 0.000000 3.053559 -12.070956 -10.188421 0.341057 -1.408884 -72.116668 0.000005 -35.093546 0.000002 -10.850417 18.533290 2.119571 0.105645 2.337908 -35.231717 0.667089 2.961447 -25.383756 0.019992 0.525414 -4.358071 -0.000001 -0.000000 0.000001 -1.625206 3.364621 12.042270 6.576617 18.697808 -1.358308 1.860456 8.865755 1.096830 0.000000 -0.000001 -0.000001 1.619767 3.079797 10.398730 -10.005274 -3.700803 68.914505 0.000001 24.483728 -0.000006 10.941456 -21.121368 9.764517 -8.947246 -6.495918 -11.593355 9.808260 -21.801573 0.822534 0.992812 -6.030231 -2.153589 -0.000001 0.000002 0.000000 -0.379502 -0.062177 19.104608 1.239936 -3.968050 34.694161 0.313993 -2.069781 17.250693 0.000001 -0.000002 0.000000 -43.877245 -0.668079 11.824079 71.797139 3.656619 3.738603 -4.377117 0.527195 -5.391536 -1.101951 -0.000002 -0.000001 -0.000000 -0.000001 -0.000000 -40.460466 -5.637829 -9.876871 69.571576 -0.653214 1.519137 -5.960796 -0.104356 1.590609 -0.241253 -0.000008 -0.000000 -0.000000 -0.000000 0.000000 
-0.465334 64.432167 4.277634 -23.575880 -0.695583 -4.442410 19.284112 0.890285 4.317524 5.692006 0.183133 1.489121 5.691290 0.213178 1.486501 6.456109 -0.746320 0.039750 -9.660256 -2.810129 -2.541098 0.000000 0.000000 0.000000 3.049694 -12.059501 -10.181679 0.373304 -1.427476 -72.099149 -0.000000 -35.055970 -0.000021 -10.794350 18.565668 2.116901 0.110207 2.344694 -35.236382 0.666591 2.960402 -25.374110 0.020054 0.526220 -4.364770 -0.000000 -0.000000 0.000000 -1.624632 3.365569 12.063685 6.578035 18.702595 -1.359346 1.860868 8.866866 1.096597 -0.000000 0.000001 -0.000000 1.620036 3.074457 10.404725 -10.021996 -3.736813 69.000374 0.000003 24.398086 -0.000019 11.050713 -21.120576 9.812730 -8.946399 -6.498329 -11.579780 9.808051 -21.801076 0.822492 0.994253 -6.034085 -2.153615 0.000001 -0.000000 0.000000 -0.393474 -0.011656 19.030241 1.239704 -3.967716 34.690824 0.310680 -2.059077 17.158644 0.000001 -0.000001 -0.000000 -43.820161 -0.649135 11.846231 71.791094 3.647819 3.735348 -4.372151 0.528404 -5.385060 -1.093360 0.000002 -0.000001 -0.000000 -0.000001 0.000000 -40.407683 -5.620652 -9.849958 69.563954 -0.661292 1.501938 -5.943529 -0.106658 1.604216 -0.245917 -0.000001 0.000001 0.000000 0.000001 0.000000 
-0.466696 64.429123 4.266098 -23.639117 -0.697341 -4.448200 19.253226 0.886118 4.303552 5.681825 0.182232 1.484152 5.681126 0.212014 1.481550 6.497002 -0.742401 0.061770 -9.514138 -2.761170 -2.561104 0.000001 0.000000 -0.000000 3.046476 -12.048867 -10.176918 0.393881 -1.417816 -72.113130 0.000014 -35.019305 0.000027 -10.703908 18.610923 2.072192 0.112112 2.347701 -35.241222 0.666081 2.959318 -25.364181 0.019991 0.525371 -4.357739 -0.000000 0.000000 -0.000001 -1.623288 3.368371 12.078288 6.579820 18.708575 -1.360714 1.860997 8.867191 1.096526 0.000000 -0.000001 0.000002 1.620321 3.068562 10.411314 -10.018133 -3.744184 69.044900 -0.000008 24.346146 0.000022 11.128349 -21.143213 9.887422 -8.947389 -6.496844 -11.568031 9.807400 -21.799534 0.822377 0.995435 -6.037256 -2.153630 0.000000 0.000001 -0.000001 -0.418496 0.070386 18.967884 1.239107 -3.966856 34.682212 0.307354 -2.048291 17.065878 -0.000000 -0.000000 0.000000 -43.761924 -0.641794 11.863563 71.790759 3.645175 3.738445 -4.368134 0.531363 -5.384918 -1.086346 -0.000002 0.000000 0.000000 0.000000 0.000000 -40.346621 -5.612068 -9.828726 69.556830 -0.664615 1.490962 -5.931602 -0.109034 1.615082 -0.243628 0.000005 -0.000001 -0.000000 0.000000 0.000000 
